<svg version="1.2" xmlns="http://www.w3.org/2000/svg" viewBox="0 0 25 24" width="25" height="24">
	<title>Group 6942-svg</title>
	<defs>
		<clipPath clipPathUnits="userSpaceOnUse" id="cp1">
			<path d="m0 0h24v24h-24z"/>
		</clipPath>
	</defs>
	<style>
		tspan { white-space:pre } 
		.t0 { font-size: 16px;fill: #343434;font-weight: 700;font-family: "Comfortaa-Bold", "Comfortaa" } 
		.s1 { fill: #3b86ff } 
	</style>
	<g id="Group_6942">
		<text id="Lorem Ipsum dolor sit" style="transform: matrix(1,0,0,1,49,17)" >
			<tspan x="0" y="0" class="t0">Lorem Ipsum dolor sit
</tspan>
		</text>
		<g id="Clip-Path: ic_website" clip-path="url(#cp1)">
			<g id="ic_website">
				<g id="ic_web">
					<path id="Path_2370" class="s1" d="m13.1 21.5c1.5-0.2 2.8-1.8 3.6-4.1q-0.4-0.1-0.9-0.2-0.4 0-0.9-0.1-0.4 0-0.9-0.1-0.4 0-0.9 0z"/>
					<path id="Path_2371" class="s1" d="m15.5 21.1q0.1 0 0.3 0 0.1-0.1 0.2-0.1 0.1-0.1 0.2-0.1 0.2-0.1 0.3-0.1l0.2-0.1q0.1 0 0.2-0.1 0.1-0.1 0.3-0.1l0.2-0.1q0.1-0.1 0.2-0.2 0.1 0 0.2-0.1l0.2-0.1q0.1-0.1 0.2-0.1 0.1-0.1 0.3-0.2l0.1-0.1q0.2-0.1 0.3-0.2 0.1-0.1 0.1-0.2 0.1 0 0.2-0.1 0.1-0.1 0.2-0.2 0.1-0.1 0.2-0.2 0.1-0.1 0.2-0.1v-0.1q-0.3-0.1-0.6-0.3-0.2-0.1-0.5-0.2-0.3-0.1-0.7-0.2-0.3-0.1-0.6-0.2-0.1 0.5-0.4 1-0.2 0.5-0.5 0.9-0.2 0.5-0.6 0.9-0.3 0.4-0.7 0.8h0.1q0.1 0 0.2-0.1z"/>
					<path id="Path_2372" class="s1" d="m22.5 12.1h-4.1q-0.1 0.6-0.1 1.2 0 0.6-0.1 1.2-0.1 0.6-0.3 1.2-0.1 0.6-0.3 1.2 0.4 0.1 0.7 0.2 0.4 0.1 0.7 0.3 0.3 0.1 0.7 0.3 0.3 0.1 0.6 0.3 0.5-0.6 0.9-1.3 0.4-0.7 0.7-1.5 0.3-0.7 0.5-1.5 0.1-0.8 0.1-1.6z"/>
					<path id="Path_2373" class="s1" d="m13.1 11.4h4.6q-0.1-0.6-0.1-1.2 0-0.6-0.1-1.2-0.1-0.5-0.2-1.1-0.2-0.6-0.3-1.2-0.5 0.1-1 0.2-0.5 0.1-0.9 0.2-0.5 0-1 0.1-0.5 0-1 0z"/>
					<path id="Path_2374" class="s1" d="m13.1 2v4.5q0.5 0 0.9 0 0.5-0.1 0.9-0.1 0.5-0.1 0.9-0.2 0.5 0 0.9-0.1c-0.8-2.3-2.1-3.9-3.6-4.1z"/>
					<path id="Path_2375" class="s1" d="m13.1 16.3q0.5 0 1 0 0.5 0.1 1 0.1 0.4 0.1 0.9 0.2 0.5 0.1 1 0.2 0.1-0.6 0.3-1.2 0.1-0.6 0.2-1.1 0.1-0.6 0.1-1.2 0-0.6 0.1-1.2h-4.6z"/>
					<path id="Path_2376" class="s1" d="m20.3 5.5q-0.3 0.2-0.6 0.3-0.4 0.2-0.7 0.3-0.3 0.2-0.7 0.3-0.3 0.1-0.7 0.2 0.2 0.6 0.3 1.2 0.2 0.6 0.3 1.2 0.1 0.6 0.1 1.2 0 0.6 0.1 1.2h4.1q0-0.8-0.1-1.6-0.2-0.8-0.5-1.5-0.3-0.8-0.7-1.5-0.4-0.7-0.9-1.3z"/>
					<path id="Path_2377" class="s1" d="m19.8 5q-0.1-0.1-0.2-0.2-0.1-0.1-0.2-0.2-0.1-0.1-0.2-0.2 0-0.1-0.2-0.1 0-0.1-0.1-0.2-0.1-0.1-0.2-0.2-0.1 0-0.2-0.1-0.1-0.1-0.3-0.2-0.1 0-0.2-0.1-0.1-0.1-0.2-0.1-0.1-0.1-0.2-0.1-0.1-0.1-0.2-0.2-0.1 0-0.2-0.1-0.1 0-0.3-0.1-0.1-0.1-0.2-0.1-0.1-0.1-0.2-0.1-0.2 0-0.3-0.1-0.1 0-0.2-0.1-0.1 0-0.2-0.1-0.2 0-0.3 0-0.1-0.1-0.2-0.1h-0.1q0.4 0.4 0.7 0.8 0.4 0.4 0.6 0.9 0.3 0.4 0.5 0.9 0.3 0.5 0.4 1 0.3-0.1 0.7-0.2 0.3-0.1 0.6-0.2 0.3-0.1 0.6-0.2 0.2-0.2 0.5-0.3z"/>
					<path id="Path_2378" class="s1" d="m3 11.4h4.2q0-0.6 0-1.2 0.1-0.6 0.2-1.2 0.1-0.6 0.2-1.2 0.1-0.6 0.3-1.2-0.4-0.1-0.7-0.2-0.3-0.1-0.7-0.3-0.3-0.1-0.6-0.3-0.3-0.1-0.7-0.3-0.5 0.6-0.9 1.3-0.4 0.7-0.7 1.5-0.3 0.7-0.4 1.5-0.2 0.8-0.2 1.6z"/>
					<path id="Path_2379" class="s1" d="m12.4 21.5v-4.5q-0.4 0-0.9 0-0.5 0.1-0.9 0.1-0.5 0.1-0.9 0.2-0.5 0-0.9 0.1c0.8 2.3 2.1 3.9 3.6 4.1z"/>
					<path id="Path_2380" class="s1" d="m12.4 12.1h-4.5q0 0.6 0 1.2 0.1 0.6 0.2 1.2 0.1 0.5 0.2 1.1 0.1 0.6 0.3 1.2 0.4-0.1 0.9-0.2 0.5-0.1 1-0.2 0.5 0 1-0.1 0.4 0 0.9 0z"/>
					<path id="Path_2381" class="s1" d="m12.4 2c-1.5 0.2-2.8 1.8-3.6 4.1q0.4 0.1 0.9 0.2 0.4 0 0.9 0.1 0.4 0 0.9 0.1 0.5 0 0.9 0z"/>
					<path id="Path_2382" class="s1" d="m12.4 7.2q-0.5 0-0.9 0-0.5-0.1-1-0.1-0.5-0.1-1-0.2-0.5-0.1-0.9-0.2-0.2 0.6-0.3 1.2-0.1 0.6-0.2 1.1-0.1 0.6-0.2 1.2 0 0.6 0 1.2h4.5z"/>
					<path id="Path_2383" class="s1" d="m10.3 2.3q-0.2 0-0.3 0.1-0.1 0-0.2 0-0.2 0.1-0.3 0.1-0.1 0.1-0.2 0.1-0.1 0.1-0.2 0.1l-0.3 0.1q-0.1 0-0.2 0.1-0.1 0.1-0.2 0.1l-0.2 0.1q-0.2 0.1-0.3 0.2-0.1 0-0.2 0.1-0.1 0-0.2 0.1-0.1 0.1-0.2 0.1-0.1 0.1-0.2 0.2l-0.2 0.1q-0.1 0.1-0.2 0.2-0.1 0.1-0.2 0.2-0.1 0-0.2 0.1-0.1 0.1-0.2 0.2-0.1 0.1-0.2 0.2-0.1 0.1-0.2 0.1v0.1q0.3 0.1 0.6 0.3 0.3 0.1 0.6 0.2 0.3 0.1 0.6 0.2 0.3 0.1 0.6 0.2 0.2-0.5 0.4-1 0.2-0.5 0.5-0.9 0.3-0.5 0.6-0.9 0.4-0.4 0.7-0.8z"/>
					<path id="Path_2384" class="s1" d="m5.9 18.7q0.1 0.1 0.2 0.2 0.1 0.1 0.2 0.2 0.1 0.1 0.2 0.1 0.1 0.1 0.2 0.2 0.1 0.1 0.2 0.2 0.1 0 0.2 0.1 0.1 0.1 0.2 0.2 0.1 0 0.2 0.1 0.1 0.1 0.2 0.1 0.1 0.1 0.2 0.1 0.1 0.1 0.3 0.2 0.1 0 0.2 0.1 0.1 0 0.2 0.1 0.1 0.1 0.2 0.1 0.1 0.1 0.3 0.1 0.1 0 0.2 0.1 0.1 0 0.3 0.1 0.1 0 0.2 0.1 0.1 0 0.2 0 0.1 0.1 0.3 0.1-0.3-0.4-0.7-0.8-0.3-0.4-0.6-0.9-0.3-0.4-0.5-0.9-0.2-0.5-0.4-1-0.3 0.1-0.6 0.2-0.3 0.1-0.6 0.2-0.3 0.1-0.6 0.2-0.3 0.2-0.6 0.3 0.1 0.1 0.2 0.2z"/>
					<path id="Path_2385" class="s1" d="m5.2 18q0.4-0.2 0.7-0.3 0.3-0.2 0.6-0.3 0.4-0.2 0.7-0.3 0.3-0.1 0.7-0.2-0.2-0.6-0.3-1.2-0.1-0.6-0.2-1.2-0.1-0.6-0.2-1.2 0-0.6 0-1.2h-4.2q0 0.8 0.2 1.6 0.1 0.8 0.4 1.5 0.3 0.8 0.7 1.5 0.4 0.7 0.9 1.3z"/>
				</g>
			</g>
		</g>
	</g>
</svg>